<svg version="1.1" id="Layer_1" xmlns="http://www.w3.org/2000/svg" xmlns:xlink="http://www.w3.org/1999/xlink" x="0px" y="0px"
	 width="100%" viewBox="0 0 1024 1024" enable-background="new 0 0 1024 1024" xml:space="preserve">
<path fill="#000000" opacity="1.000000" stroke="none" 
	d="
M446.774902,301.725616 
	C454.502716,297.387756 461.971558,293.332886 469.298401,289.035950 
	C472.848999,286.953613 475.876038,286.989746 479.480560,289.149719 
	C489.480865,295.142273 499.733368,300.712524 509.780151,306.629761 
	C512.268982,308.095551 514.095947,308.012421 516.570679,306.526794 
	C526.709229,300.440338 537.041260,294.676819 547.208130,288.636322 
	C550.453186,286.708313 553.199829,286.809296 556.474731,288.695801 
	C594.581909,310.647491 632.734253,332.520935 670.930603,354.317139 
	C674.702576,356.469543 676.220398,359.217072 676.215637,363.574829 
	C676.144226,428.898071 676.166077,494.221466 676.293579,559.544617 
	C676.302002,563.840576 674.460938,566.279663 670.988037,568.277832 
	C647.888428,581.568665 624.852295,594.969910 601.764832,608.281860 
	C576.223572,623.008728 550.520508,637.461487 525.167847,652.505310 
	C517.510071,657.049316 511.410278,658.289368 502.968964,653.354309 
	C454.362488,624.937378 405.402130,597.124207 356.456757,569.291016 
	C352.109039,566.818726 350.545135,564.060486 350.558075,559.058289 
	C350.725830,494.235168 350.743317,429.411194 350.530762,364.588287 
	C350.512238,358.946472 352.424408,355.831909 357.163666,353.139801 
	C387.000885,336.190735 416.707642,319.011932 446.774902,301.725616 
M464.581207,422.838440 
	C479.601196,431.462738 494.641937,440.051270 509.621277,448.745605 
	C512.187988,450.235382 514.313049,450.393463 517.003052,448.841370 
	C554.797546,427.034668 592.651062,405.330170 630.479431,383.582092 
	C631.718262,382.869843 633.337769,382.400757 633.291382,380.449158 
	C632.467285,378.605011 630.596985,378.061279 629.048706,377.162415 
	C591.743896,355.504242 554.406372,333.902374 517.151978,312.157867 
	C514.336731,310.514618 512.275635,310.373688 509.443329,312.034607 
	C471.663086,334.189484 433.815399,356.229340 395.999176,378.322845 
	C394.793518,379.027222 393.156830,379.444977 393.077515,381.335999 
	C393.345978,381.587189 393.554657,381.870056 393.833618,382.031097 
	C417.199127,395.521851 440.570068,409.003113 464.581207,422.838440 
M571.905334,494.825439 
	C588.920349,504.511993 605.935364,514.198547 622.671265,523.726257 
	C622.416077,525.839844 621.430603,526.551086 620.440735,527.130188 
	C605.345337,535.961853 590.229187,544.758179 575.124084,553.573242 
	C573.327209,554.621826 571.760132,554.558594 570.127686,553.111572 
	C566.771240,550.136414 563.319580,551.163025 560.018677,553.245300 
	C556.323425,555.576355 554.332458,559.289124 552.668701,563.125244 
	C549.828674,569.673401 551.102600,576.625366 555.385620,578.969055 
	C559.753479,581.359131 566.612122,578.330872 570.281860,572.034668 
	C571.866028,569.316711 573.902527,567.448730 576.584290,565.895203 
	C595.610840,554.873352 614.540222,543.683594 633.584412,532.692627 
	C638.537781,529.833862 640.870239,526.208008 640.798889,520.204041 
	C640.515686,496.379181 640.734985,472.548737 640.648071,448.720795 
	C640.627258,443.021851 640.536438,437.444672 643.806030,432.368256 
	C645.085999,430.380890 645.152710,427.925812 644.932556,425.566650 
	C644.496216,420.891327 641.852173,418.721771 637.206848,419.170288 
	C629.189270,419.944366 621.151306,431.434937 623.118652,439.263214 
	C623.541077,440.944244 624.187195,442.599274 625.701050,443.383484 
	C628.941284,445.062012 629.229492,447.799072 629.173340,450.971710 
	C628.843323,469.625244 628.612488,488.280548 628.323669,506.934875 
	C628.303833,508.219025 628.574097,509.618835 627.403931,510.713409 
	C625.396667,511.272583 623.962219,509.922089 622.421387,509.045380 
	C607.076294,500.314362 591.769226,491.516235 576.391235,482.843842 
	C574.137512,481.572815 573.116333,480.026581 572.687317,477.445587 
	C571.873779,472.551270 568.121338,470.503784 563.451904,472.210541 
	C557.095581,474.533905 553.940857,479.705597 552.032227,485.814453 
	C550.696167,490.090820 550.871399,494.208801 554.690308,497.161652 
	C558.549561,500.145660 562.523315,499.038177 566.334106,496.726898 
	C567.859863,495.801544 569.113586,494.210114 571.905334,494.825439 
M405.252319,522.523743 
	C420.490295,514.284851 435.791443,506.159393 450.924622,497.732269 
	C455.030701,495.445770 458.195374,494.715515 462.662140,497.502380 
	C469.095856,501.516449 475.413208,497.585724 475.587524,490.236847 
	C475.738251,483.885010 469.031067,474.401581 462.919250,472.324829 
	C458.471252,470.813385 454.816162,472.837341 454.322174,477.604828 
	C454.008636,480.631012 452.811615,482.367798 450.191406,483.789764 
	C434.821655,492.130829 419.539795,500.633636 404.193573,509.018372 
	C402.519989,509.932800 400.900635,511.399139 398.812561,510.741730 
	C397.777527,509.947754 397.738770,508.912140 397.737183,507.934448 
	C397.704926,488.106293 397.701050,468.278076 397.672729,448.449890 
	C397.670135,446.626038 398.182831,445.297394 400.040314,444.517517 
	C403.078430,443.241974 403.836029,440.614502 403.857330,437.562103 
	C403.910645,429.920685 399.912292,424.682800 393.812469,420.822449 
	C390.525970,418.742584 386.820129,418.063782 383.542053,420.708496 
	C380.335999,423.295135 380.960632,426.943420 381.859406,430.412933 
	C382.147339,431.524353 382.641846,432.640472 383.283081,433.591827 
	C385.729279,437.220886 386.221008,441.224426 386.203644,445.499603 
	C386.100739,470.826355 386.237762,496.154694 386.001404,521.479736 
	C385.953430,526.622681 387.675995,529.912354 392.083221,532.425842 
	C403.223206,538.779114 414.442444,545.038086 425.214691,551.979370 
	C436.828430,559.462769 450.589935,563.878357 459.400482,575.493958 
	C460.355011,576.752380 462.003937,577.569702 463.461578,578.346008 
	C469.795288,581.719116 475.262878,578.562805 475.641968,571.382874 
	C476.029724,564.038879 469.819916,554.737366 462.856079,552.078918 
	C460.280670,551.095764 457.874390,551.003540 456.035828,553.266296 
	C454.309143,555.391479 452.621765,554.739502 450.776825,553.667664 
	C446.455688,551.157349 442.114319,548.681335 437.811920,546.139343 
	C427.343719,539.954346 416.855591,533.801025 406.479523,527.464539 
	C405.077332,526.608215 401.675018,525.765930 405.252319,522.523743 
z"/>
<path fill="#000000" opacity="1.000000" stroke="none" 
	d="
M561.204285,734.533264 
	C549.579590,736.256165 539.319702,731.808044 534.527039,723.230957 
	C529.318054,713.908569 530.155273,700.572266 536.422791,693.036255 
	C543.063538,685.051453 554.793213,682.032471 565.108643,685.755127 
	C566.808716,686.368713 568.496460,687.222168 569.934814,688.303894 
	C571.751587,689.670349 574.050903,691.214233 572.251404,694.005005 
	C570.512817,696.701294 568.073181,697.157898 565.380493,695.308960 
	C562.255432,693.163025 558.885681,691.989868 555.045349,692.326416 
	C548.694275,692.882996 543.734192,695.784546 541.542175,701.822571 
	C538.960510,708.934204 539.530823,716.063477 544.462708,722.122803 
	C548.622131,727.233093 554.580261,727.711792 560.505859,726.513367 
	C565.634277,725.476135 563.435608,720.980774 563.740295,717.806335 
	C564.029480,714.793884 562.018616,714.222351 559.541382,714.354675 
	C558.711792,714.399109 557.876221,714.320190 557.043274,714.314392 
	C554.536255,714.296997 553.443176,712.907959 553.404358,710.535156 
	C553.362976,708.007446 554.825562,706.921570 557.159180,706.866150 
	C561.156189,706.771179 565.155151,706.762756 569.153076,706.705261 
	C571.804443,706.667114 572.581238,708.224854 572.546692,710.565735 
	C572.470459,715.729919 572.543152,720.899170 572.339111,726.057800 
	C572.151733,730.791382 569.531250,732.734558 561.204285,734.533264 
z"/>
<path fill="#000000" opacity="1.000000" stroke="none" 
	d="
M708.138184,688.093750 
	C708.175171,684.170166 709.816162,682.447510 713.435486,682.765259 
	C716.782654,683.059021 717.301086,685.269104 717.294617,688.041809 
	C717.262817,701.690430 717.331848,715.339417 717.258789,728.987793 
	C717.231445,734.107483 714.188110,736.019104 709.848511,733.298889 
	C707.784851,732.005310 706.675415,732.632935 704.994080,733.387878 
	C695.633057,737.591187 686.680542,733.585510 683.550049,723.805603 
	C681.935669,718.762390 682.019531,713.574219 683.291138,708.534790 
	C685.665771,699.124634 694.743774,694.482117 703.909729,697.739929 
	C705.141907,698.177856 706.311829,698.790527 707.764893,699.434998 
	C708.997253,695.646912 708.052673,692.053345 708.138184,688.093750 
M707.609314,708.173889 
	C704.314514,702.723083 695.572937,703.239136 692.866516,708.353210 
	C690.405090,713.004333 690.387024,718.085449 692.684387,722.782654 
	C694.630310,726.761169 698.431335,727.650024 702.527039,726.712524 
	C706.352844,725.836792 708.654480,723.389954 708.617065,719.297241 
	C708.585388,715.826721 709.194397,712.297607 707.609314,708.173889 
z"/>
<path fill="#000000" opacity="1.000000" stroke="none" 
	d="
M403.687012,706.281128 
	C400.603607,703.308899 401.864105,701.196289 404.698273,699.820801 
	C411.083618,696.721741 417.722900,695.954956 424.449097,698.710510 
	C429.482330,700.772522 430.888306,705.233521 431.079315,710.062073 
	C431.335388,716.535034 431.300873,723.025818 431.181976,729.505066 
	C431.104034,733.753540 428.200653,735.755554 424.578888,733.662598 
	C422.295197,732.342896 420.828247,732.646729 418.742126,733.529358 
	C415.482971,734.908142 412.033569,735.260376 408.493469,734.460571 
	C403.263031,733.278992 400.194824,730.026245 399.737244,724.992065 
	C399.241516,719.538818 401.569031,715.509094 406.394775,713.347473 
	C410.317444,711.590454 414.470093,711.649475 418.631958,711.636780 
	C420.074432,711.632446 421.874878,711.947144 422.332214,709.980774 
	C422.760315,708.140137 421.675995,706.767761 420.219788,705.811523 
	C416.814423,703.575623 413.270233,704.186584 409.690674,705.404480 
	C407.862762,706.026428 406.161682,707.462097 403.687012,706.281128 
M412.131775,727.630798 
	C414.636871,727.945129 417.066956,727.914978 419.410309,726.701904 
	C422.438751,725.134094 423.248535,722.521545 422.456116,719.569946 
	C421.586914,716.332214 418.782593,717.510376 416.604218,717.704834 
	C415.129456,717.836426 413.627716,718.159180 412.241974,718.675415 
	C410.313293,719.393860 408.727722,720.629333 408.398712,722.860779 
	C408.050781,725.220642 409.329529,726.599548 412.131775,727.630798 
z"/>
<path fill="#000000" opacity="1.000000" stroke="none" 
	d="
M625.142334,713.813965 
	C629.346802,711.717163 633.479553,711.606812 637.660583,711.646179 
	C639.234863,711.661011 641.237366,712.058105 641.652649,709.724304 
	C642.027893,707.615417 640.778381,706.317078 639.055847,705.350159 
	C635.599731,703.410339 632.272766,704.808167 628.921204,705.697815 
	C626.438354,706.356873 623.495422,708.088989 622.314148,704.183594 
	C621.263000,700.708374 624.122681,699.618408 626.636475,698.627686 
	C629.446899,697.520020 632.430603,697.038635 635.416260,697.021484 
	C645.886597,696.961426 650.236694,701.291382 650.392761,711.789490 
	C650.479065,717.593567 650.542297,723.399292 650.506958,729.203552 
	C650.477234,734.088135 647.671814,735.973206 643.569275,733.432312 
	C641.618958,732.224365 640.484009,732.329163 638.751160,733.269653 
	C636.190979,734.658997 633.317993,734.742798 630.491333,734.590027 
	C624.654236,734.274475 621.005615,731.578369 619.635071,726.742126 
	C618.140259,721.467529 619.619263,717.801697 625.142334,713.813965 
M628.134033,722.631714 
	C628.074341,725.638245 629.646240,727.300415 632.529114,727.626709 
	C635.773865,727.993835 638.941650,727.589172 641.086792,724.814575 
	C642.832642,722.556396 641.961487,718.208923 639.875183,717.497375 
	C636.477417,716.338440 630.415833,718.617188 628.134033,722.631714 
z"/>
<path fill="#000000" opacity="1.000000" stroke="none" 
	d="
M600.529053,725.697266 
	C603.458923,723.635742 603.969788,720.939697 603.945862,717.993042 
	C603.904053,712.838379 603.923279,707.683167 603.887024,702.528442 
	C603.862854,699.090088 605.410767,697.182068 608.969482,697.263123 
	C612.897766,697.352600 612.655518,700.040405 612.645142,702.889893 
	C612.614990,711.195679 612.986633,719.505920 612.831299,727.807434 
	C612.708923,734.351379 610.445312,735.604858 604.364075,732.745117 
	C602.793579,732.006592 601.824951,732.690735 600.674377,733.177246 
	C598.160400,734.240173 595.546082,734.461060 592.861633,734.412842 
	C585.510376,734.280762 581.243225,730.653687 580.838684,723.256653 
	C580.439697,715.961121 580.755005,708.628174 580.677490,701.312500 
	C580.648071,698.536377 582.089905,697.419678 584.637512,697.310913 
	C587.426331,697.191772 589.131348,698.367371 589.165894,701.318665 
	C589.232056,706.971863 589.198730,712.626343 589.290955,718.278992 
	C589.418274,726.080017 592.408997,728.145386 600.529053,725.697266 
z"/>
<path fill="#000000" opacity="1.000000" stroke="none" 
	d="
M344.644135,697.516602 
	C355.277710,696.961365 359.294830,700.632385 359.329834,710.565613 
	C359.351532,716.720337 359.295471,722.875427 359.341339,729.029846 
	C359.361481,731.734253 359.171295,734.085876 355.574097,734.162903 
	C351.921173,734.241150 351.072998,731.978394 351.035919,728.999756 
	C350.965546,723.344849 350.903870,717.689148 350.919434,712.034058 
	C350.930695,707.937378 349.492432,705.299011 344.919312,705.222290 
	C339.928406,705.138611 336.526489,707.706116 336.376617,712.201111 
	C336.193756,717.684875 336.275726,723.178589 336.300232,728.667725 
	C336.313293,731.592529 335.859467,734.049072 332.160156,734.166260 
	C328.454468,734.283691 327.760559,731.925415 327.761749,728.947083 
	C327.765442,719.964539 327.822327,710.981445 327.743164,701.999634 
	C327.707123,697.908813 330.931732,696.336792 333.188263,697.930969 
	C337.434662,700.930908 340.623383,697.927307 344.644135,697.516602 
z"/>
<path fill="#000000" opacity="1.000000" stroke="none" 
	d="
M504.518036,712.383789 
	C502.238373,714.936707 502.749390,717.052551 504.431152,719.357605 
	C507.448792,723.493530 510.284912,727.761963 513.366882,732.220947 
	C509.317749,734.985657 506.158722,734.972839 503.421844,731.436096 
	C501.217529,728.587524 499.137177,725.643066 497.070190,722.834045 
	C491.391571,726.115967 491.266144,737.362976 480.488129,732.613708 
	C482.559875,728.072998 485.549377,724.521484 488.361115,720.979370 
	C491.103363,717.524841 491.253326,714.565063 488.536072,711.174316 
	C486.770935,708.971619 485.126434,706.642090 483.694794,704.212158 
	C482.637573,702.417725 479.587097,700.230835 482.469818,698.361145 
	C484.952820,696.750671 488.350769,697.091125 490.427094,700.122009 
	C492.479431,703.117859 494.426819,706.185547 496.510712,709.359497 
	C502.471344,706.200439 502.593872,694.757141 513.311096,698.720215 
	C511.376221,704.014038 507.447723,707.699768 504.518036,712.383789 
z"/>
<path fill="#000000" opacity="1.000000" stroke="none" 
	d="
M370.877869,719.992188 
	C368.778625,714.160889 366.741180,708.715515 364.905151,703.202942 
	C364.295013,701.371033 362.527557,698.805420 365.992126,697.953003 
	C368.592987,697.312988 371.324982,697.218506 372.555481,700.648865 
	C374.797729,706.899658 377.166107,713.105347 379.501678,719.322388 
	C379.783936,720.073669 380.188934,720.778931 380.928436,722.322388 
	C383.273102,715.891968 385.345001,710.194275 387.430084,704.501465 
	C388.000580,702.943787 388.467865,701.325745 389.232697,699.866516 
	C390.726013,697.017395 393.413025,697.275940 395.768646,698.121216 
	C398.150146,698.975830 397.273254,701.157959 396.681763,702.829590 
	C393.414124,712.064941 390.034241,721.260498 386.761688,730.494141 
	C385.741364,733.372986 383.482300,733.961304 380.863586,734.127136 
	C378.067322,734.304260 376.046509,733.323975 375.012848,730.556763 
	C373.734772,727.135132 372.354370,723.751709 370.877869,719.992188 
z"/>
<path fill="#000000" opacity="1.000000" stroke="none" 
	d="
M308.921173,721.962036 
	C308.964539,711.170837 308.979828,700.873657 309.065552,690.577087 
	C309.092041,687.397705 309.559540,684.515808 313.858398,684.554382 
	C316.707611,684.580017 318.284424,685.709412 318.285370,688.640015 
	C318.289825,702.424561 318.274994,716.209167 318.274170,729.993713 
	C318.273987,733.342468 316.171356,734.141541 313.343933,734.171021 
	C310.451904,734.201111 309.053070,732.746765 308.994324,729.929077 
	C308.942383,727.438721 308.942871,724.947327 308.921173,721.962036 
z"/>
<path fill="#000000" opacity="1.000000" stroke="none" 
	d="
M451.101868,698.559021 
	C453.447968,697.560791 455.539948,697.047607 457.733826,697.292847 
	C459.820099,697.526062 461.093811,698.652161 461.095947,700.873840 
	C461.098083,703.071960 460.398743,704.639099 457.930115,705.205994 
	C448.470856,707.378235 447.945984,707.994324 447.482117,717.611816 
	C447.282104,721.758545 447.321899,725.918640 447.324158,730.072693 
	C447.325592,732.759705 445.993958,734.004272 443.388641,734.138367 
	C440.695312,734.276978 439.157990,732.852600 439.128540,730.356689 
	C439.012909,720.558044 438.921753,710.752686 439.184448,700.959595 
	C439.271454,697.715881 442.897614,696.297607 446.000397,698.470093 
	C447.907440,699.805420 449.113037,699.844971 451.101868,698.559021 
z"/>
<path fill="#000000" opacity="1.000000" stroke="none" 
	d="
M663.080505,734.294434 
	C659.140625,734.224365 658.737488,731.837585 658.737915,729.135254 
	C658.739136,720.322510 658.671936,711.509155 658.759155,702.697266 
	C658.803528,698.216797 662.092285,695.650818 665.430481,698.123901 
	C668.658630,700.515381 670.588013,699.143799 673.279419,698.088440 
	C677.865417,696.290039 679.988403,697.308167 680.263245,701.007568 
	C680.445007,703.454956 679.861450,704.868042 676.947327,705.428955 
	C668.888367,706.980530 667.645508,708.623291 667.393494,716.763428 
	C667.259827,721.082764 667.293274,725.410156 667.363770,729.731995 
	C667.408081,732.447388 666.665405,734.328735 663.080505,734.294434 
z"/>
<path fill="#000000" opacity="1.000000" stroke="none" 
	d="
M474.312500,716.996704 
	C474.303345,721.652405 474.280518,725.809265 474.289551,729.966125 
	C474.295868,732.870300 472.799347,734.156006 469.975555,734.254089 
	C467.057983,734.355347 465.680054,733.063599 465.684357,730.122009 
	C465.698242,720.644409 465.679077,711.166504 465.626709,701.689026 
	C465.609619,698.595032 467.331573,697.713379 470.086975,697.731079 
	C472.703949,697.747925 474.197235,698.796448 474.216614,701.533630 
	C474.251984,706.521729 474.280853,711.509766 474.312500,716.996704 
z"/>
<path fill="#000000" opacity="1.000000" stroke="none" 
	d="
M473.141174,692.262573 
	C470.040070,693.816589 467.641998,693.314209 465.698639,691.004883 
	C464.398041,689.459290 464.365723,687.651733 465.254822,685.908569 
	C466.260742,683.936523 468.111298,683.201538 470.187134,683.195801 
	C472.117523,683.190491 473.761566,684.058777 474.650269,685.813171 
	C475.816223,688.114807 475.528900,690.274780 473.141174,692.262573 
z"/>
<path fill="#000000" opacity="1.000000" stroke="none" 
	d="
M474.323486,388.746521 
	C470.852692,386.705933 467.549500,385.063354 464.562653,382.969543 
	C460.911804,380.410339 460.950714,377.940552 464.831299,375.714600 
	C479.989288,367.019623 495.266327,358.532349 510.461670,349.901978 
	C512.728882,348.614319 514.572510,349.421204 516.547119,350.427979 
	C531.827820,358.218567 546.475159,367.137268 561.356995,375.635651 
	C565.288269,377.880615 565.279236,380.243896 561.235535,382.621124 
	C546.174561,391.475128 530.977112,400.096558 515.897705,408.919586 
	C512.869019,410.691711 510.477997,409.459839 507.997314,408.044769 
	C496.865692,401.694885 485.751678,395.314087 474.323486,388.746521 
z"/>
</svg>